ply
format ascii 1.0
element vertex 176
property float x
property float y
property float z
element face 205
property list uchar int vertex_index
end_header
-49.248693 -8.635173 0.000000
-48.801641 10.881169 0.000000
-41.707863 -27.576334 0.000000
-46.461434 -18.475257 0.000000
-39.965979 -7.807057 0.000000
-49.985968 1.184487 0.000000
-39.150518 11.208709 0.000000
-45.354387 21.047081 0.000000
-39.975683 30.032396 0.000000
-27.933254 -41.469668 0.000000
-35.346549 -35.364127 0.000000
-29.073165 -26.789472 0.000000
-35.069190 -17.835036 0.000000
-29.066864 -7.936299 0.000000
-36.799536 1.623114 0.000000
-28.438435 10.800960 0.000000
-33.748469 20.899974 0.000000
-27.536417 30.197320 0.000000
-32.936100 37.619321 0.000000
-18.927175 -46.279175 0.000000
-21.648030 -34.537019 0.000000
-16.373868 -26.419818 0.000000
-23.130080 -17.495937 0.000000
-17.354613 -8.009199 0.000000
-24.060975 1.351376 0.000000
-17.176993 10.954192 0.000000
-22.426450 20.759990 0.000000
-17.973791 32.367393 0.000000
-24.841043 43.392656 0.000000
-15.821036 47.430948 0.000000
-9.326186 -49.122523 0.000000
-10.979597 -37.769291 0.000000
-5.384216 -28.314451 0.000000
-11.060431 -17.460389 0.000000
-5.607781 -7.845082 0.000000
-11.863557 1.506417 0.000000
-5.991527 11.464060 0.000000
-11.929136 21.540573 0.000000
-5.804455 30.000311 0.000000
-11.046701 39.317822 0.000000
-5.314139 49.716797 0.000000
-0.000000 -50.000000 0.000000
9.326186 -49.122523 0.000000
-0.000000 -39.353476 0.000000
5.384216 -28.314451 0.000000
0.000000 -18.105320 0.000000
5.607781 -7.845082 0.000000
0.000000 2.015276 0.000000
5.991527 11.464060 0.000000
0.000000 20.548921 0.000000
5.804455 30.000311 0.000000
-0.000000 39.751733 0.000000
5.314139 49.716797 0.000000
18.927175 -46.279175 0.000000
10.979597 -37.769291 0.000000
16.373868 -26.419818 0.000000
11.060431 -17.460389 0.000000
17.354613 -8.009199 0.000000
11.863557 1.506417 0.000000
17.176993 10.954192 0.000000
11.929136 21.540573 0.000000
17.973791 32.367393 0.000000
11.046701 39.317822 0.000000
15.821036 47.430948 0.000000
27.933253 -41.469668 0.000000
21.648030 -34.537018 0.000000
29.073165 -26.789472 0.000000
23.130080 -17.495937 0.000000
29.066864 -7.936299 0.000000
24.060975 1.351376 0.000000
28.438435 10.800960 0.000000
22.426450 20.759990 0.000000
27.536417 30.197320 0.000000
24.841043 43.392656 0.000000
35.346548 -35.364128 0.000000
41.707863 -27.576334 0.000000
35.069190 -17.835035 0.000000
39.965979 -7.807057 0.000000
36.799536 1.623114 0.000000
39.150518 11.208709 0.000000
33.748469 20.899974 0.000000
39.975682 30.032396 0.000000
32.936100 37.619321 0.000000
46.461434 -18.475257 0.000000
49.248693 -8.635173 0.000000
49.985968 1.184487 0.000000
48.801641 10.881169 0.000000
45.354387 21.047081 0.000000
-49.248693 -8.635173 10.000000
-48.801641 10.881169 10.000000
-41.707863 -27.576334 10.000000
-46.461434 -18.475257 10.000000
-39.965979 -7.807057 10.000000
-49.985968 1.184487 10.000000
-39.150518 11.208709 10.000000
-45.354387 21.047081 10.000000
-39.975683 30.032396 10.000000
-27.933254 -41.469668 10.000000
-35.346549 -35.364127 10.000000
-29.073165 -26.789472 10.000000
-35.069190 -17.835036 10.000000
-29.066864 -7.936299 10.000000
-36.799536 1.623114 10.000000
-28.438435 10.800960 10.000000
-33.748469 20.899974 10.000000
-27.536417 30.197320 10.000000
-32.936100 37.619321 10.000000
-18.927175 -46.279175 10.000000
-21.648030 -34.537019 10.000000
-16.373868 -26.419818 10.000000
-23.130080 -17.495937 10.000000
-17.354613 -8.009199 10.000000
-24.060975 1.351376 10.000000
-17.176993 10.954192 10.000000
-22.426450 20.759990 10.000000
-17.973791 32.367393 10.000000
-24.841043 43.392656 10.000000
-15.821036 47.430948 10.000000
-9.326186 -49.122523 10.000000
-10.979597 -37.769291 10.000000
-5.384216 -28.314451 10.000000
-11.060431 -17.460389 10.000000
-5.607781 -7.845082 10.000000
-11.863557 1.506417 10.000000
-5.991527 11.464060 10.000000
-11.929136 21.540573 10.000000
-5.804455 30.000311 10.000000
-11.046701 39.317822 10.000000
-5.314139 49.716797 10.000000
-0.000000 -50.000000 10.000000
9.326186 -49.122523 10.000000
-0.000000 -39.353476 10.000000
5.384216 -28.314451 10.000000
0.000000 -18.105320 10.000000
5.607781 -7.845082 10.000000
0.000000 2.015276 10.000000
5.991527 11.464060 10.000000
0.000000 20.548921 10.000000
5.804455 30.000311 10.000000
-0.000000 39.751733 10.000000
5.314139 49.716797 10.000000
18.927175 -46.279175 10.000000
10.979597 -37.769291 10.000000
16.373868 -26.419818 10.000000
11.060431 -17.460389 10.000000
17.354613 -8.009199 10.000000
11.863557 1.506417 10.000000
17.176993 10.954192 10.000000
11.929136 21.540573 10.000000
17.973791 32.367393 10.000000
11.046701 39.317822 10.000000
15.821036 47.430948 10.000000
27.933253 -41.469668 10.000000
21.648030 -34.537018 10.000000
29.073165 -26.789472 10.000000
23.130080 -17.495937 10.000000
29.066864 -7.936299 10.000000
24.060975 1.351376 10.000000
28.438435 10.800960 10.000000
22.426450 20.759990 10.000000
27.536417 30.197320 10.000000
24.841043 43.392656 10.000000
35.346548 -35.364128 10.000000
41.707863 -27.576334 10.000000
35.069190 -17.835035 10.000000
39.965979 -7.807057 10.000000
36.799536 1.623114 10.000000
39.150518 11.208709 10.000000
33.748469 20.899974 10.000000
39.975682 30.032396 10.000000
32.936100 37.619321 10.000000
46.461434 -18.475257 10.000000
49.248693 -8.635173 10.000000
49.985968 1.184487 10.000000
48.801641 10.881169 10.000000
45.354387 21.047081 10.000000
3 72 82 73
3 74 65 64
3 0 3 4
3 16 8 7
3 81 82 72
3 80 81 72
3 87 81 80
3 43 42 54
3 66 65 74
3 84 77 83
3 0 4 5
3 40 51 52
3 36 35 47
3 37 36 49
3 62 52 51
3 16 7 6
3 6 7 1
3 1 5 6
3 33 32 45
3 33 23 22
3 68 57 67
3 69 57 68
3 27 26 37
3 69 68 78
3 78 68 77
3 12 4 3
3 3 2 12
3 12 2 11
3 12 11 22
3 9 19 20
3 53 64 65
3 65 54 53
3 53 54 42
3 55 54 65
3 55 66 67
3 65 66 55
3 11 2 10
3 9 20 10
3 10 20 11
3 41 42 43
3 43 30 41
3 75 66 74
3 76 83 77
3 77 68 76
3 66 75 76
3 76 75 83
3 67 66 76
3 76 68 67
3 58 57 69
3 69 59 58
3 58 46 57
3 47 46 58
3 70 59 69
3 69 78 70
3 37 49 38
3 38 27 37
3 48 59 60
3 60 49 48
3 47 58 48
3 48 58 59
3 48 36 47
3 48 49 36
3 63 62 73
3 52 62 63
3 72 73 61
3 73 62 61
3 50 49 60
3 60 61 50
3 50 61 62
3 50 62 51
3 51 38 50
3 50 38 49
3 35 36 25
3 37 26 25
3 25 36 37
3 47 35 34
3 34 46 47
3 35 23 34
3 23 33 34
3 45 46 34
3 34 33 45
3 26 27 17
3 16 26 17
3 17 28 18
3 17 27 28
3 17 8 16
3 17 18 8
3 39 29 28
3 28 27 39
3 27 38 39
3 39 38 51
3 40 29 39
3 39 51 40
3 87 80 79
3 80 70 79
3 79 70 78
3 22 11 21
3 11 20 21
3 21 33 22
3 32 33 21
3 19 30 31
3 31 20 19
3 31 30 43
3 43 32 31
3 32 21 31
3 31 21 20
3 67 57 56
3 56 55 67
3 57 46 56
3 56 46 45
3 54 55 44
3 44 32 43
3 43 54 44
3 45 32 44
3 44 56 45
3 55 56 44
3 60 59 71
3 59 70 71
3 72 61 71
3 71 61 60
3 71 80 72
3 71 70 80
3 24 23 35
3 35 25 24
3 87 79 86
3 14 5 4
3 14 6 5
3 16 6 15
3 15 26 16
3 6 14 15
3 15 14 24
3 15 25 26
3 15 24 25
3 13 12 22
3 4 12 13
3 22 23 13
3 23 24 13
3 13 14 4
3 24 14 13
3 85 79 78
3 85 86 79
3 85 77 84
3 85 78 77
3 0 3 88
3 3 91 88
3 0 5 88
3 5 93 88
3 1 5 89
3 5 93 89
3 1 7 89
3 7 95 89
3 2 3 90
3 3 91 90
3 2 10 90
3 10 98 90
3 7 8 95
3 8 96 95
3 8 18 96
3 18 106 96
3 9 10 97
3 10 98 97
3 9 19 97
3 19 107 97
3 18 28 106
3 28 116 106
3 19 30 107
3 30 118 107
3 28 29 116
3 29 117 116
3 29 40 117
3 40 128 117
3 30 41 118
3 41 129 118
3 40 52 128
3 52 140 128
3 41 42 129
3 42 130 129
3 42 53 130
3 53 141 130
3 52 63 140
3 63 151 140
3 53 64 141
3 64 152 141
3 63 73 151
3 73 161 151
3 64 74 152
3 74 162 152
3 73 82 161
3 82 170 161
3 74 75 162
3 75 163 162
3 75 83 163
3 83 171 163
3 81 82 169
3 82 170 169
3 81 87 169
3 87 175 169
3 83 84 171
3 84 172 171
3 84 85 172
3 85 173 172
3 85 86 173
3 86 174 173
3 86 87 174
3 87 175 174
